<svg xmlns="http://www.w3.org/2000/svg" width="300" height="130" viewBox="0 0 47 25">
  <path d="M5.34 6.140000000000001 c0 0.08 0.23666 0.84334 0.71 2.29 s0.99 3.03 1.55 4.75 s1.3133 3.9934 2.26 6.82 l0.86 0 l-5.3 -15.76 l-0.16 0 l-5.26 15.76 l0.82 0 z M4.98 15.52 l-0.72 0 l1.2 4.48 l0.72 0 z M17.4 15.219999999999999 c0.85334 -0.48 1.5067 -1.1567 1.96 -2.03 s0.68 -1.8633 0.68 -2.97 l0 -0.28 c0 -1.64 -0.49 -3 -1.47 -4.08 s-2.3766 -1.62 -4.19 -1.62 l-1.38 0 l0 6.34 c0.22666 0.01334 0.45332 0.02 0.67998 0.02 l0 -5.72 l0.66 0 c1.64 0 2.88 0.47666 3.72 1.43 s1.26 2.1766 1.26 3.67 l0 0.22 c0 1.48 -0.42 2.6934 -1.26 3.64 s-2.08 1.42 -3.72 1.42 l-0.66 0 l0 0 l-0.68 0 l0 0.64 c0.4 0.01334 0.66666 0.02 0.8 0.02 l0.58 0 c0.92 0 1.7267 -0.14 2.42 -0.42 l2.48 4.5 l0.8 0 z M29.62 19.96 l0.039942 -0.63998 c-1.96 -0.13334 -3.52 -0.94668 -4.68 -2.44 c-1.1067 -1.3867 -1.66 -3.06 -1.66 -5.02 c0 -1.0267 0.16666 -1.9167 0.5 -2.67 s0.83334 -1.4833 1.5 -2.19 c1.3333 -1.4 3 -2.1 5 -2.1 c1.2133 0 2.3066 0.26 3.28 0.78 s1.7667 1.2467 2.38 2.18 l0.48 -0.38 c-0.66666 -1.0133 -1.5333 -1.8067 -2.6 -2.38 c-1.0133 -0.54666 -2.16 -0.81332 -3.44 -0.79998 c-1.08 0 -2.0934 0.18334 -3.04 0.55 s-1.78 0.93 -2.5 1.69 c-0.72 0.77334 -1.2633 1.5733 -1.63 2.4 s-0.55 1.8 -0.55 2.92 c0.01334 2.12 0.62 3.9334 1.82 5.44 c1.28 1.6133 2.98 2.5 5.1 2.66 z M30.84 19.98002 c1.0933 -0.06666 2.0934 -0.32664 3 -0.77998 c1.04 -0.53334 1.9133 -1.2867 2.62 -2.26 l-0.46 -0.4 c-0.64 0.88 -1.4467 1.5733 -2.42 2.08 c-0.84 0.42666 -1.76 0.66666 -2.76 0.72 z M39.74 13.96 l0 -9.72 l-0.68 0 l0 15.76 l0.68 0 l0 -5.4 l0 -0.64 z M40.02 14.6 l5.84 0 l0 5.4 l0.68 0 l0 -11.62 l-0.68 0 l0 5.58 l-5.84 0 l0 0.64 z" fill="#005792"></path>
</svg>
